<svg width="512.000000pt" height="512.000000pt" viewBox="0 0 512.000000 512.000000" xmlns="http://www.w3.org/2000/svg">
  <g transform="translate(0.000000,512.000000) scale(0.100000,-0.100000)" fill="#fefefe" stroke="none">
    <path d="M0 2560 l0 -2560 2560 0 2560 0 0 2560 0 2560 -2560 0 -2560 0 0
-2560z m3266 2054 c45 -21 76 -66 81 -117 l5 -42 -722 -1925 c-397 -1059 -729
-1940 -737 -1958 -21 -43 -65 -74 -117 -79 l-43 -5 -37 17 c-47 22 -77 66 -83
118 l-5 42 727 1940 c400 1067 736 1952 746 1966 38 55 120 74 185 43z m-1760
-960 c62 -30 93 -96 79 -171 l-7 -38 -439 -440 c-241 -242 -439 -445 -439
-450 0 -5 195 -206 434 -445 l434 -435 13 -42 12 -42 -18 -46 -17 -46 -37 -24
c-20 -14 -51 -27 -68 -31 l-32 -6 -43 21 -43 20 -496 498 -497 498 -12 39 -12
39 12 41 12 41 501 502 c275 276 515 509 531 517 40 20 90 20 132 0z m2238 1
l32 -15 501 -503 501 -502 7 -37 c4 -21 4 -55 0 -75 l-7 -38 -501 -503 -502
-503 -43 -20 -43 -21 -35 7 -35 6 -39 35 -39 35 -12 36 -11 36 12 41 12 41
434 435 c239 240 434 442 434 450 0 8 -195 210 -434 450 l-434 435 -7 38 c-24
129 94 226 209 172z" />
  </g>
  <g transform="translate(0.000000,512.000000) scale(0.100000,-0.100000)" fill="#7bc354" stroke="none">
    <path d="M797 3112 c-97 -97 -177 -181 -177 -185 0 -15 25 -6 52 20 l27 26 0
-418 0 -419 -62 62 c-57 56 -87 75 -87 54 0 -13 424 -432 438 -432 l12 0 0
223 0 222 -145 145 -145 145 145 145 145 145 0 223 0 222 -13 0 c-7 0 -92 -80
-190 -178z" />
  </g>
  <g transform="translate(0.000000,512.000000) scale(0.100000,-0.100000)" fill="#6bc069" stroke="none">
    <path d="M1365 3664 c-31 -16 -185 -163 -185 -176 0 -14 23 -9 42 9 l18 16 0
-195 0 -196 -15 -12 c-16 -13 -21 -40 -7 -40 5 0 90 82 189 183 l181 182 7 38
c28 147 -104 257 -230 191z" />
    <path d="M1240 1803 l0 -207 -33 32 c-32 31 -57 41 -57 24 0 -5 44 -52 98
-104 l98 -95 38 -13 38 -12 34 5 c19 3 51 16 71 28 l35 22 19 41 c23 50 24 85
4 134 l-16 37 -157 158 c-86 86 -160 157 -164 157 -5 0 -8 -93 -8 -207z" />
  </g>
  <g transform="translate(0.000000,512.000000) scale(0.100000,-0.100000)" fill="#73c15e" stroke="none">
    <path d="M1065 3380 c-93 -94 -166 -170 -160 -170 5 0 26 17 47 37 l38 37 0
-215 0 -215 -12 -12 c-6 -6 -9 -14 -7 -16 3 -3 67 57 143 133 l137 138 -1 219
c0 120 -4 222 -8 226 -4 4 -84 -69 -177 -162z" />
    <path d="M990 2050 l0 -224 -63 62 c-34 34 -67 62 -72 62 -5 0 78 -88 185
-195 107 -107 198 -191 202 -187 4 4 8 106 8 226 l1 219 -130 131 -131 131 0
-225z" />
  </g>
  <g transform="translate(0.000000,512.000000) scale(0.100000,-0.100000)" fill="#3cb8a3" stroke="none">
    <path d="M3080 4595 c-7 -9 -10 -18 -7 -21 10 -11 37 5 37 21 0 19 -14 19 -30
0z" />
    <path d="M2985 4373 c-4 -10 -60 -161 -126 -336 l-119 -317 0 -441 0 -441 11
4 c6 2 62 139 124 303 149 399 155 415 144 415 l-9 0 0 415 0 415 -9 0 c-5 0
-12 -8 -16 -17z" />
  </g>
  <g transform="translate(0.000000,512.000000) scale(0.100000,-0.100000)" fill="#34b6ad" stroke="none">
    <path d="M3122 4623 c-47 -23 -114 -136 -97 -164 4 -5 2 -9 -3 -9 -6 0 -14
-12 -19 -27 l-8 -28 5 -445 5 -445 8 13 c5 6 5 17 2 22 -3 6 -2 10 3 10 12 0
34 59 27 70 -3 5 -1 10 4 12 5 1 78 185 161 408 l152 405 -4 51 -4 51 -22 30
c-42 59 -140 81 -210 46z" />
  </g>
  <g transform="translate(0.000000,512.000000) scale(0.100000,-0.100000)" fill="#56bc83" stroke="none">
    <path d="M2181 2230 l-10 -30 13 0 c12 0 25 28 26 53 0 19 -19 4 -29 -23z" />
    <path d="M2041 1857 l-121 -323 0 -442 0 -442 9 0 c10 0 11 2 160 400 l99 265
-9 6 -10 6 3 426 c2 235 0 427 -3 427 -4 0 -61 -145 -128 -323z" />
  </g>
  <g transform="translate(0.000000,512.000000) scale(0.100000,-0.100000)" fill="#0fb0dc" stroke="none">
    <path d="M4190 2998 l0 -223 107 -107 108 -108 -108 -108 -107 -107 0 -223 0
-222 13 0 c13 0 437 420 437 433 0 22 -34 -2 -112 -80 l-88 -88 0 395 0 395
88 -88 c78 -78 112 -102 112 -79 0 13 -424 432 -438 432 l-12 0 0 -222z" />
    <path d="M4780 2560 c0 -16 5 -30 10 -30 6 0 10 14 10 30 0 17 -4 30 -10 30
-5 0 -10 -13 -10 -30z" />
  </g>
  <g transform="translate(0.000000,512.000000) scale(0.100000,-0.100000)" fill="#84c449" stroke="none">
    <path d="M518 2832 l-177 -177 -16 -37 c-19 -47 -19 -79 0 -126 l16 -37 177
-177 176 -178 8 8 c11 11 11 883 0 894 l-8 8 -176 -178z m117 -652 c38 -38 67
-70 64 -70 -2 0 -36 32 -74 70 -38 39 -67 70 -64 70 2 0 36 -31 74 -70z" />
  </g>
  <g transform="translate(0.000000,512.000000) scale(0.100000,-0.100000)" fill="#5ebe79" stroke="none">
    <path d="M1760 1108 l-162 -433 4 -51 4 -51 22 -30 c12 -17 38 -38 58 -48 l37
-17 52 4 52 4 30 22 c17 12 40 43 52 68 l22 46 -1 456 c0 251 -2 457 -4 459
-2 2 -76 -191 -166 -429z" />
  </g>
  <g transform="translate(0.000000,512.000000) scale(0.100000,-0.100000)" fill="#1cb3cb" stroke="none">
    <path d="M3780 3408 l0 -223 102 -102 c57 -57 108 -103 115 -103 l13 0 0 202
0 202 63 -62 c56 -56 87 -75 87 -55 0 13 -354 363 -367 363 l-13 0 0 -222z" />
    <path d="M4010 2962 c0 -10 163 -172 173 -172 22 0 -2 34 -71 103 -70 69 -102
91 -102 69z" />
    <path d="M4092 2247 c-83 -83 -93 -97 -69 -97 16 0 167 151 167 168 0 23 -16
12 -98 -71z" />
    <path d="M3882 2037 l-102 -102 0 -223 0 -222 13 0 c13 0 367 350 367 363 0
20 -31 1 -87 -55 l-63 -62 0 202 0 202 -13 0 c-7 0 -58 -46 -115 -103z" />
  </g>
  <g transform="translate(0.000000,512.000000) scale(0.100000,-0.100000)" fill="#4fbb8b" stroke="none">
    <path d="M2336 2643 c-14 -38 -46 -122 -70 -187 -25 -66 -43 -123 -40 -128 3
-4 1 -8 -3 -8 -11 0 -34 -60 -27 -71 3 -5 0 -9 -6 -9 -7 0 -10 -6 -8 -12 3 -7
-2 -19 -9 -27 -8 -7 -12 -19 -9 -27 3 -7 2 -14 -2 -16 -4 -2 -6 -200 -4 -440
l2 -438 11 0 c6 0 9 6 7 12 -3 7 2 19 9 27 8 7 12 20 9 27 -3 8 -2 14 3 14 8
0 24 41 25 65 1 6 4 12 7 15 14 11 167 435 158 438 l-9 4 0 414 0 414 -9 0
c-5 0 -21 -30 -35 -67z" />
  </g>
  <g transform="translate(0.000000,512.000000) scale(0.100000,-0.100000)" fill="#16b1d3" stroke="none">
    <path d="M4007 3413 c-3 -5 -7 -108 -8 -228 l-1 -218 188 -188 c103 -104 190
-186 193 -183 3 2 -36 46 -87 97 l-92 92 0 215 0 215 85 -85 c46 -46 87 -82
89 -79 3 3 -77 87 -178 188 -101 101 -186 179 -189 174z m78 -73 c38 -38 67
-70 64 -70 -2 0 -36 32 -74 70 -38 39 -67 70 -64 70 2 0 36 -31 74 -70z m20
-460 c44 -44 77 -80 75 -80 -3 0 -41 36 -85 80 -44 44 -77 80 -75 80 3 0 41
-36 85 -80z" />
    <path d="M4196 2351 l-198 -198 1 -219 c1 -121 5 -222 9 -226 4 -4 91 76 192
177 102 102 180 185 175 185 -5 0 -47 -37 -92 -82 l-83 -83 0 215 0 215 102
103 c56 56 99 104 97 107 -3 2 -94 -85 -203 -194z m-16 -34 c0 -1 -37 -38 -82
-82 l-83 -80 80 83 c74 76 85 87 85 79z m-30 -470 c0 -1 -33 -34 -72 -72 l-73
-70 70 73 c64 67 75 77 75 69z" />
  </g>
  <g transform="translate(0.000000,512.000000) scale(0.100000,-0.100000)" fill="#07afe5" stroke="none">
    <path d="M4437 2984 c-10 -10 -9 -842 1 -848 5 -3 82 69 173 160 90 90 160
164 154 164 -5 0 0 6 11 14 l19 14 0 72 0 72 -17 12 c-10 7 -16 15 -13 17 2 3
-69 78 -158 167 -90 90 -166 160 -170 156z m103 -99 c52 -52 92 -95 90 -95 -3
0 -48 43 -100 95 -52 52 -92 95 -90 95 3 0 48 -43 100 -95z m90 -558 c0 -1
-44 -45 -97 -97 l-98 -95 95 98 c88 90 100 102 100 94z" />
  </g>
  <g transform="translate(0.000000,512.000000) scale(0.100000,-0.100000)" fill="#23b4c3" stroke="none">
    <path d="M3602 3663 c-18 -9 -42 -29 -54 -46 l-22 -30 -4 -52 -4 -52 16 -34
c16 -35 241 -267 250 -258 3 2 6 106 7 229 l1 224 -33 18 -34 18 -45 0 c-25 0
-60 -8 -78 -17z" />
    <path d="M3653 1807 l-121 -123 -12 -41 -13 -41 8 -38 7 -38 42 -42 42 -42 38
-7 38 -8 36 12 c21 6 46 19 57 29 l20 17 -3 223 c-1 122 -6 222 -11 222 -4 0
-62 -55 -128 -123z" />
  </g>
  <g transform="translate(0.000000,512.000000) scale(0.100000,-0.100000)" fill="#43b99a" stroke="none">
    <path d="M2732 3698 c-11 -29 -56 -150 -101 -269 l-81 -216 0 -437 0 -438 12
4 c7 3 52 110 101 238 l88 234 2 468 c1 257 1 468 0 468 -1 0 -10 -24 -21 -52z" />
  </g>
  <g transform="translate(0.000000,512.000000) scale(0.100000,-0.100000)" fill="#49ba93" stroke="none">
    <path d="M2542 3185 c-8 -16 -50 -129 -95 -250 l-82 -220 3 -437 2 -438 11 0
c6 0 9 6 6 14 -3 8 -2 16 3 18 7 3 43 95 161 411 16 43 24 75 19 72 l-10 -6
-2 433 -3 433 -13 -30z" />
  </g>
  <g transform="translate(0.000000,512.000000) scale(0.100000,-0.100000)" fill="#cfeef5" stroke="none">
    <path d="M3854 3563 c61 -59 290 -285 509 -503 219 -217 399 -395 401 -395 1
0 -223 226 -499 503 -275 276 -506 502 -512 502 -6 0 39 -48 101 -107z" />
    <path d="M3530 3447 c0 -6 197 -208 437 -449 l438 -438 -432 -433 c-402 -404
-464 -470 -449 -485 3 -3 6 0 6 7 0 7 197 213 438 458 240 245 437 449 437
453 0 4 -197 208 -437 453 -241 245 -438 440 -438 434z" />
    <path d="M4262 1960 l-503 -499 -41 -13 c-22 -7 -36 -14 -29 -16 6 -2 30 6 54
17 l42 21 495 495 c272 272 493 495 490 495 -3 -1 -231 -226 -508 -500z" />
  </g>
  <g transform="translate(0.000000,512.000000) scale(0.100000,-0.100000)" fill="#e7f3e4" stroke="none">
    <path d="M855 3168 l-500 -503 490 486 c269 268 501 494 515 503 l24 16 -14 0
c-8 0 -239 -226 -515 -502z" />
    <path d="M1524 3651 c15 -10 37 -32 47 -47 10 -16 19 -24 19 -17 0 16 -67 83
-83 83 -7 0 1 -9 17 -19z" />
    <path d="M1580 3450 c0 -8 -199 -215 -442 -460 l-443 -445 428 425 c420 417
475 475 463 487 -3 4 -6 0 -6 -7z" />
    <path d="M820 1976 c448 -451 538 -536 564 -536 6 0 -5 9 -24 21 -19 11 -255
240 -525 507 l-490 487 475 -479z" />
    <path d="M1610 573 c0 -16 67 -83 83 -83 7 0 -1 9 -17 19 -15 10 -37 32 -47
47 -10 16 -19 24 -19 17z" />
    <path d="M1890 555 c-7 -14 -27 -34 -44 -45 -17 -11 -26 -20 -19 -20 14 0 83
66 83 80 0 16 -6 12 -20 -15z" />
  </g>
  <g transform="translate(0.000000,512.000000) scale(0.100000,-0.100000)" fill="#c5e7d3" stroke="none">
    <path d="M1125 2130 c236 -236 432 -430 435 -430 3 0 -189 194 -425 430 -236
237 -432 430 -435 430 -3 0 189 -193 425 -430z" />
  </g>
  <g transform="translate(0.000000,512.000000) scale(0.100000,-0.100000)" fill="#35b9c8" stroke="none">
    <path d="M3850 3565 c52 -52 97 -95 100 -95 2 0 -38 43 -90 95 -52 52 -97 95
-100 95 -2 0 38 -43 90 -95z" />
    <path d="M3780 3195 c129 -129 237 -235 240 -235 3 0 -101 106 -230 235 -129
129 -237 235 -240 235 -3 0 101 -106 230 -235z" />
    <path d="M3775 1918 l-240 -243 243 240 c225 223 247 245 239 245 -1 0 -110
-109 -242 -242z" />
    <path d="M3840 1543 l-85 -88 88 85 c48 46 87 86 87 87 0 8 -11 -3 -90 -84z" />
  </g>
  <g transform="translate(0.000000,512.000000) scale(0.100000,-0.100000)" fill="#9ed9c2" stroke="none" />
  <g transform="translate(0.000000,512.000000) scale(0.100000,-0.100000)" fill="#5cc3b2" stroke="none" />
  <g transform="translate(0.000000,512.000000) scale(0.100000,-0.100000)" fill="#82cc9d" stroke="none" />
  <g transform="translate(0.000000,512.000000) scale(0.100000,-0.100000)" fill="#7fd0c9" stroke="none" />
</svg>